<svg xmlns="http://www.w3.org/2000/svg" version="1.1" xmlns:xlink="http://www.w3.org/1999/xlink" xmlns:svgjs="http://svgjs.dev/svgjs" width="128" height="128" viewBox="0 0 128 128"><g transform="matrix(0.8046875,0,0,0.8046875,12.035589780487015,12.222292855743405)"><svg viewBox="0 0 96 96" data-background-color="#e9e2da" preserveAspectRatio="xMidYMid meet" height="128" width="128" xmlns="http://www.w3.org/2000/svg" xmlns:xlink="http://www.w3.org/1999/xlink"><g id="tight-bounds" transform="matrix(1,0,0,1,0.4334207675971271,0.25950000000000273)"><svg viewBox="0 0 95.13315846480575 95.481" height="95.481" width="95.13315846480575"><g><svg viewBox="0 0 95.13315846480575 95.481" height="95.481" width="95.13315846480575"><g><svg viewBox="0 0 95.13315846480575 95.481" height="95.481" width="95.13315846480575"><g id="textblocktransform"><svg viewBox="0 0 95.13315846480575 95.481" height="95.481" width="95.13315846480575" id="textblock"><g><svg viewBox="0 0 95.13315846480575 95.481" height="95.481" width="95.13315846480575"><g><svg viewBox="0 0 95.13315846480575 95.481" height="95.481" width="95.13315846480575"><g><svg xmlns="http://www.w3.org/2000/svg" xmlns:xlink="http://www.w3.org/1999/xlink" version="1.1" x="0" y="0" viewBox="0.095 -0.0000021697207237282845 99.63569987018721 100.00000433944145" enable-background="new 0 0 100 100" xml:space="preserve" id="icon-0" width="95.13315846480575" height="95.481" class="icon-icon-0" data-fill-palette-color="accent"><g fill="#64748b" data-fill-palette-color="accent"><g fill="#64748b" data-fill-palette-color="accent"><path d="M99.405 92.317L79.26 60.693V2.083A2.08 2.08 0 0 0 77.177 0H10.457A2.08 2.08 0 0 0 8.374 2.083V4.238C3.72 4.783 0.095 8.745 0.095 13.543A9.36 9.36 0 0 0 3.59 20.835C1.462 22.555 0.095 25.183 0.095 28.127S1.461 33.698 3.59 35.419A9.36 9.36 0 0 0 0.095 42.711 9.36 9.36 0 0 0 3.59 50.003C1.462 51.723 0.095 54.35 0.095 57.295S1.461 62.866 3.59 64.587C1.462 66.307 0.095 68.935 0.095 71.878S1.461 77.449 3.59 79.169A9.36 9.36 0 0 0 0.095 86.461C0.095 91.26 3.72 95.221 8.373 95.767V97.917C8.373 99.068 9.305 100 10.456 100H77.176A2.08 2.08 0 0 0 79.259 97.917V83.961L88.863 99.035A2.09 2.09 0 0 0 90.62 100C91.014 100 91.404 99.888 91.739 99.672L98.766 95.193A2.084 2.084 0 0 0 99.405 92.317M8.374 76.962C6.027 76.457 4.262 74.371 4.262 71.875S6.027 67.293 8.374 66.788zM8.374 62.379C6.027 61.874 4.262 59.788 4.262 57.292S6.027 52.71 8.374 52.205zM8.374 47.796C6.027 47.291 4.262 45.205 4.262 42.709S6.027 38.127 8.374 37.622zM8.374 33.213C6.027 32.708 4.262 30.622 4.262 28.126S6.027 23.544 8.374 23.039zM8.374 8.455V18.63C6.027 18.125 4.262 16.039 4.262 13.543S6.027 8.96 8.374 8.455M4.262 86.458A5.21 5.21 0 0 1 8.374 81.371V91.545A5.21 5.21 0 0 1 4.262 86.458M75.094 95.831H64.677V85.414A2.082 2.082 0 1 0 60.511 85.414V95.831H12.54V82.272C13.83 83.22 14.678 84.737 14.678 86.458A2.082 2.082 0 1 0 18.844 86.458C18.844 82.364 16.203 78.885 12.539 77.609V67.689C13.829 68.637 14.677 70.153 14.677 71.875A2.082 2.082 0 1 0 18.843 71.875C18.843 67.781 16.202 64.302 12.538 63.026V53.106C13.828 54.054 14.676 55.57 14.676 57.292A2.082 2.082 0 1 0 18.842 57.292C18.842 53.198 16.201 49.719 12.537 48.444V38.524C13.827 39.472 14.675 40.989 14.675 42.71A2.082 2.082 0 1 0 18.841 42.71C18.841 38.617 16.2 35.137 12.536 33.862V23.942C13.826 24.89 14.674 26.407 14.674 28.128A2.082 2.082 0 1 0 18.84 28.128C18.84 24.035 16.199 20.555 12.535 19.28V9.357C13.825 10.306 14.673 11.822 14.673 13.543A2.082 2.082 0 1 0 18.839 13.543C18.839 9.45 16.198 5.97 12.534 4.695V4.166H75.088V54.153L70.299 46.635A2 2 0 0 0 69.832 46.13 2.07 2.07 0 0 0 69.088 44.971L59.724 37.749A2 2 0 0 0 59.184 37.446C59.152 37.433 59.122 37.42 59.088 37.408A2 2 0 0 0 58.542 37.3C58.514 37.298 58.484 37.301 58.456 37.3A2 2 0 0 0 57.954 37.354C57.923 37.361 57.892 37.365 57.861 37.373A2 2 0 0 0 57.41 37.553L43.514 45.258 60.059 24.203A2.085 2.085 0 0 0 57.62 20.993L39.672 28.472 47.588 17.915A2.08 2.08 0 0 0 47.671 15.537 2.1 2.1 0 0 0 45.469 14.632L31.452 17.747 35.207 11.489A2.082 2.082 0 1 0 31.635 9.345L25.385 19.762A2.08 2.08 0 0 0 25.481 22.053 2.1 2.1 0 0 0 27.623 22.868L40.875 19.922 31.755 32.084A2.081 2.081 0 0 0 34.223 35.256L51.845 27.913 33.873 50.794A2.083 2.083 0 0 0 36.522 53.904L57.003 42.55 58.984 51.41C59.06 51.751 59.221 52.059 59.444 52.316 59.459 52.68 59.56 53.039 59.759 53.351L75.093 77.42zM61.717 44.544L64.201 46.459 62.402 47.605zM91.258 95.039L64.395 52.869 67.911 50.631 94.771 92.8z" fill="#64748b" data-fill-palette-color="accent"></path></g></g></svg></g></svg></g></svg></g></svg></g></svg></g></svg></g><defs></defs></svg><rect width="95.13315846480575" height="95.481" fill="none" stroke="none" visibility="hidden"></rect></g></svg></g></svg>